<mxfile host="app.diagrams.net" modified="2024-05-12T10:04:36.913Z" agent="Mozilla/5.0 (Windows NT 10.0; Win64; x64) AppleWebKit/537.36 (KHTML, like Gecko) Chrome/124.0.0.0 Safari/537.36" version="24.4.0" etag="RA4YDD5XqWBocrFilZGK" type="github">
  <diagram name="Page-1" id="KisUR3iFnN6RZmbZTNz4">
    <mxGraphModel>
      <root>
        <mxCell id="0" />
        <mxCell id="1" parent="0" />
      </root>
    </mxGraphModel>
  </diagram>
</mxfile>
